<svg xmlns="http://www.w3.org/2000/svg" viewBox="0 0 512 512">
  <defs>
    <radialGradient id="bg" cx="50%" cy="36%" r="70%">
      <stop offset="0" stop-color="#34204e"/>
      <stop offset="1" stop-color="#0c0814"/>
    </radialGradient>
    <linearGradient id="fire" x1="0" y1="1" x2="0.65" y2="0">
      <stop offset="0" stop-color="#ff4b2b"/>
      <stop offset="0.5" stop-color="#ff9f43"/>
      <stop offset="1" stop-color="#fff1a8"/>
    </linearGradient>
  </defs>
  <rect width="512" height="512" rx="128" fill="url(#bg)"/>
  <circle cx="256" cy="280" r="148" fill="none" stroke="#ffc86b" stroke-opacity=".22" stroke-width="8" stroke-dasharray="12 20"/>
  <path d="M271 92c20 91-69 111-31 176 14-39 57-54 61-107 61 64 101 133 75 208-21 60-75 88-132 79-79-13-125-75-111-145 12-60 57-89 83-137 14-26 20-53 20-81 14 13 26 15 35 7z" fill="url(#fire)"/>
  <path d="M259 251c5 45-40 62-20 101 9-20 30-29 34-56 29 34 42 64 28 95-11 25-37 38-63 31-37-10-52-49-35-80 13-24 37-40 42-72 2-10 2-20 1-31 5 8 9 12 13 12z" fill="#fff7ce"/>
</svg>
